PathFileType	4	(X/Y/Z)	C:\Users\italobelli\Desktop\GitHub\PTbot_officialCBL\Personal_Results\ABD21_noisy2.trc
DataRate	CameraRate	NumFrames	NumMarkers	Units	OrigDataRate	OrigDataStartFrame	OrigNumFrames
106.533333	106.533333	51	9	m	106.533333	601	800
Frame#	Time		gu		centelbow		EpL		centpxt8		centijc7		ij		ts		aa		ai
			X1	Y1	Z1	X2	Y2	Z2	X3	Y3	Z3	X4	Y4	Z4	X5	Y5	Z5	X6	Y6	Z6	X7	Y7	Z7	X8	Y8	Z8	X9	Y9	Z9

601	5.632	-0.10225	0.00068727	0.16048	-0.11397	-0.20112	0.29775	-0.12127	-0.18157	0.32128	-0.046816	-0.15316	-0.008669	-0.046816	0.031938	-0.008669	0	0	0	-0.13105	0.022926	0.032053	-0.13391	0.027807	0.15121	-0.14136	-0.089694	0.042183
602	5.6414	-0.10209	0.00013041	0.16055	-0.11459	-0.20278	0.29547	-0.12179	-0.1835	0.31921	-0.046816	-0.15316	-0.008669	-0.046816	0.031938	-0.008669	0	0	0	-0.13104	0.023071	0.03225	-0.13371	0.027537	0.15142	-0.14143	-0.08957	0.042035
603	5.6508	-0.10193	-0.00042442	0.16061	-0.1152	-0.20442	0.29317	-0.12231	-0.1854	0.31711	-0.046816	-0.15316	-0.008669	-0.046816	0.031938	-0.008669	0	0	0	-0.13103	0.023216	0.032448	-0.13351	0.027268	0.15164	-0.1415	-0.089444	0.041888
604	5.6602	-0.10176	-0.00097658	0.16067	-0.11582	-0.20605	0.29084	-0.12284	-0.18729	0.31498	-0.046816	-0.15316	-0.008669	-0.046816	0.031938	-0.008669	0	0	0	-0.13102	0.023361	0.032645	-0.1333	0.027001	0.15185	-0.14156	-0.089318	0.041742
605	5.6696	-0.10159	-0.0015254	0.16072	-0.11643	-0.20766	0.28848	-0.12336	-0.18915	0.31283	-0.046816	-0.15316	-0.008669	-0.046816	0.031938	-0.008669	0	0	0	-0.13101	0.023505	0.032843	-0.1331	0.026735	0.15206	-0.14163	-0.089191	0.041596
606	5.679	-0.10141	-0.0020703	0.16078	-0.11704	-0.20925	0.28609	-0.12389	-0.191	0.31065	-0.046816	-0.15316	-0.008669	-0.046816	0.031938	-0.008669	0	0	0	-0.131	0.023649	0.033041	-0.13289	0.026471	0.15228	-0.14169	-0.089063	0.041451
607	5.6884	-0.10124	-0.0026105	0.16083	-0.11766	-0.21082	0.28369	-0.12441	-0.19282	0.30845	-0.046816	-0.15316	-0.008669	-0.046816	0.031938	-0.008669	0	0	0	-0.13099	0.023793	0.033238	-0.13268	0.02621	0.15248	-0.14176	-0.088935	0.041308
608	5.6977	-0.10105	-0.0031455	0.16088	-0.11827	-0.21236	0.28127	-0.12494	-0.19462	0.30623	-0.046816	-0.15316	-0.008669	-0.046816	0.031938	-0.008669	0	0	0	-0.13098	0.023935	0.033435	-0.13247	0.025951	0.15269	-0.14182	-0.088806	0.041166
609	5.7071	-0.10087	-0.0036746	0.16093	-0.11888	-0.21388	0.27884	-0.12546	-0.19639	0.304	-0.046816	-0.15316	-0.008669	-0.046816	0.031938	-0.008669	0	0	0	-0.13097	0.024077	0.033631	-0.13226	0.025695	0.1529	-0.14188	-0.088678	0.041026
610	5.7165	-0.10069	-0.0041972	0.16098	-0.11948	-0.21538	0.2764	-0.12598	-0.19813	0.30176	-0.046816	-0.15316	-0.008669	-0.046816	0.031938	-0.008669	0	0	0	-0.13096	0.024217	0.033827	-0.13205	0.025443	0.1531	-0.14194	-0.08855	0.040888
611	5.7259	-0.1005	-0.0047125	0.16103	-0.12009	-0.21685	0.27395	-0.12649	-0.19985	0.29951	-0.046816	-0.15316	-0.008669	-0.046816	0.031938	-0.008669	0	0	0	-0.13095	0.024356	0.034022	-0.13185	0.025194	0.1533	-0.142	-0.088422	0.040752
612	5.7353	-0.10031	-0.00522	0.16108	-0.12069	-0.21829	0.27151	-0.12701	-0.20153	0.29726	-0.046816	-0.15316	-0.008669	-0.046816	0.031938	-0.008669	0	0	0	-0.13094	0.024493	0.034216	-0.13164	0.024949	0.1535	-0.14206	-0.088295	0.040619
613	5.7447	-0.10012	-0.0057191	0.16112	-0.12128	-0.2197	0.26906	-0.12752	-0.20319	0.295	-0.046816	-0.15316	-0.008669	-0.046816	0.031938	-0.008669	0	0	0	-0.13093	0.024628	0.03441	-0.13143	0.024708	0.15369	-0.14212	-0.088169	0.040489
614	5.7541	-0.099933	-0.006209	0.16117	-0.12187	-0.22108	0.26662	-0.12803	-0.20481	0.29275	-0.046816	-0.15316	-0.008669	-0.046816	0.031938	-0.008669	0	0	0	-0.13092	0.024761	0.034602	-0.13122	0.024472	0.15389	-0.14218	-0.088045	0.040362
615	5.7635	-0.099743	-0.0066891	0.16121	-0.12246	-0.22243	0.26419	-0.12853	-0.2064	0.29051	-0.046816	-0.15316	-0.008669	-0.046816	0.031938	-0.008669	0	0	0	-0.13091	0.024891	0.034793	-0.13102	0.024241	0.15408	-0.14223	-0.087922	0.040238
616	5.7728	-0.099554	-0.0071587	0.16125	-0.12304	-0.22375	0.26177	-0.12902	-0.20795	0.28828	-0.046816	-0.15316	-0.008669	-0.046816	0.031938	-0.008669	0	0	0	-0.1309	0.025019	0.034983	-0.13081	0.024016	0.15427	-0.14229	-0.0878	0.040117
617	5.7822	-0.099365	-0.0076174	0.16129	-0.12361	-0.22504	0.25936	-0.12952	-0.20947	0.28606	-0.046816	-0.15316	-0.008669	-0.046816	0.031938	-0.008669	0	0	0	-0.13089	0.025145	0.035172	-0.13061	0.023795	0.15446	-0.14234	-0.08768	0.040001
618	5.7916	-0.099178	-0.0080643	0.16133	-0.12418	-0.22628	0.25697	-0.13	-0.21094	0.28385	-0.046816	-0.15316	-0.008669	-0.046816	0.031938	-0.008669	0	0	0	-0.13088	0.025268	0.035358	-0.13041	0.023581	0.15464	-0.1424	-0.087563	0.039889
619	5.801	-0.098992	-0.0084988	0.16137	-0.12474	-0.2275	0.25461	-0.13048	-0.21238	0.28166	-0.046816	-0.15316	-0.008669	-0.046816	0.031938	-0.008669	0	0	0	-0.13087	0.025387	0.035544	-0.13022	0.023373	0.15482	-0.14245	-0.087448	0.039781
620	5.8104	-0.098808	-0.0089203	0.16141	-0.12529	-0.22867	0.25227	-0.13095	-0.21378	0.2795	-0.046816	-0.15316	-0.008669	-0.046816	0.031938	-0.008669	0	0	0	-0.13086	0.025503	0.035727	-0.13002	0.023172	0.155	-0.1425	-0.087335	0.039677
621	5.8198	-0.098625	-0.0093282	0.16144	-0.12583	-0.22981	0.24996	-0.13142	-0.21513	0.27736	-0.046816	-0.15316	-0.008669	-0.046816	0.031938	-0.008669	0	0	0	-0.13085	0.025616	0.035909	-0.12983	0.022978	0.15518	-0.14255	-0.087225	0.039579
622	5.8292	-0.098446	-0.0097218	0.16148	-0.12636	-0.23091	0.24769	-0.13188	-0.21644	0.27525	-0.046816	-0.15316	-0.008669	-0.046816	0.031938	-0.008669	0	0	0	-0.13084	0.025725	0.036088	-0.12965	0.022791	0.15536	-0.1426	-0.087119	0.039485
623	5.8385	-0.098269	-0.0101	0.16151	-0.12689	-0.23196	0.24545	-0.13233	-0.2177	0.27318	-0.046816	-0.15316	-0.008669	-0.046816	0.031938	-0.008669	0	0	0	-0.13084	0.025831	0.036266	-0.12947	0.022612	0.15553	-0.14265	-0.087015	0.039397
624	5.8479	-0.098096	-0.010463	0.16155	-0.1274	-0.23298	0.24325	-0.13277	-0.21892	0.27114	-0.046816	-0.15316	-0.008669	-0.046816	0.031938	-0.008669	0	0	0	-0.13083	0.025932	0.036441	-0.12929	0.02244	0.15569	-0.1427	-0.086916	0.039315
625	5.8573	-0.097926	-0.01081	0.16158	-0.12791	-0.23395	0.24109	-0.1332	-0.22009	0.26914	-0.046816	-0.15316	-0.008669	-0.046816	0.031938	-0.008669	0	0	0	-0.13082	0.026029	0.036614	-0.12912	0.022277	0.15586	-0.14275	-0.086819	0.039238
626	5.8667	-0.09776	-0.01114	0.16162	-0.1284	-0.23487	0.23898	-0.13362	-0.22121	0.26718	-0.046816	-0.15316	-0.008669	-0.046816	0.031938	-0.008669	0	0	0	-0.13082	0.026121	0.036784	-0.12895	0.022122	0.15602	-0.1428	-0.086727	0.039168
627	5.8761	-0.097598	-0.011453	0.16165	-0.12888	-0.23575	0.23692	-0.13403	-0.22227	0.26527	-0.046816	-0.15316	-0.008669	-0.046816	0.031938	-0.008669	0	0	0	-0.13081	0.026209	0.036952	-0.12879	0.021977	0.15618	-0.14285	-0.086639	0.039104
628	5.8855	-0.097441	-0.011747	0.16168	-0.12935	-0.23658	0.23491	-0.13443	-0.22329	0.2634	-0.046816	-0.15316	-0.008669	-0.046816	0.031938	-0.008669	0	0	0	-0.13081	0.026292	0.037117	-0.12863	0.02184	0.15634	-0.14289	-0.086556	0.039046
629	5.8949	-0.09729	-0.012022	0.16172	-0.1298	-0.23736	0.23296	-0.13482	-0.22425	0.26159	-0.046816	-0.15316	-0.008669	-0.046816	0.031938	-0.008669	0	0	0	-0.13081	0.02637	0.037279	-0.12848	0.021714	0.15649	-0.14294	-0.086477	0.038996
630	5.9043	-0.097143	-0.012278	0.16175	-0.13025	-0.2381	0.23107	-0.13519	-0.22516	0.25984	-0.046816	-0.15316	-0.008669	-0.046816	0.031938	-0.008669	0	0	0	-0.1308	0.026442	0.037438	-0.12833	0.021597	0.15664	-0.14298	-0.086403	0.038952
631	5.9136	-0.097003	-0.012514	0.16178	-0.13068	-0.23878	0.22925	-0.13556	-0.22601	0.25814	-0.046816	-0.15316	-0.008669	-0.046816	0.031938	-0.008669	0	0	0	-0.1308	0.02651	0.037594	-0.1282	0.02149	0.15678	-0.14303	-0.086334	0.038916
632	5.923	-0.096869	-0.012729	0.16181	-0.13109	-0.23941	0.22749	-0.13591	-0.2268	0.2565	-0.046816	-0.15316	-0.008669	-0.046816	0.031938	-0.008669	0	0	0	-0.1308	0.026571	0.037747	-0.12807	0.021394	0.15692	-0.14307	-0.086271	0.038888
633	5.9324	-0.096741	-0.012923	0.16185	-0.13149	-0.23998	0.22581	-0.13625	-0.22753	0.25493	-0.046816	-0.15316	-0.008669	-0.046816	0.031938	-0.008669	0	0	0	-0.1308	0.026627	0.037897	-0.12794	0.021309	0.15706	-0.14311	-0.086213	0.038868
634	5.9418	-0.09662	-0.013094	0.16188	-0.13188	-0.24051	0.2242	-0.13658	-0.2282	0.25343	-0.046816	-0.15316	-0.008669	-0.046816	0.031938	-0.008669	0	0	0	-0.13081	0.026676	0.038043	-0.12783	0.021236	0.1572	-0.14315	-0.086161	0.038855
635	5.9512	-0.096507	-0.013243	0.16191	-0.13225	-0.24097	0.22266	-0.13689	-0.22881	0.25201	-0.046816	-0.15316	-0.008669	-0.046816	0.031938	-0.008669	0	0	0	-0.13081	0.02672	0.038185	-0.12772	0.021174	0.15733	-0.1432	-0.086115	0.038852
636	5.9606	-0.096401	-0.013369	0.16194	-0.1326	-0.24138	0.22121	-0.13718	-0.22935	0.25065	-0.046816	-0.15316	-0.008669	-0.046816	0.031938	-0.008669	0	0	0	-0.13081	0.026757	0.038324	-0.12762	0.021123	0.15745	-0.14324	-0.086075	0.038856
637	5.97	-0.096304	-0.013471	0.16197	-0.13294	-0.24173	0.21984	-0.13747	-0.22983	0.24938	-0.046816	-0.15316	-0.008669	-0.046816	0.031938	-0.008669	0	0	0	-0.13082	0.026787	0.038459	-0.12753	0.021085	0.15757	-0.14328	-0.086042	0.03887
638	5.9793	-0.096215	-0.013548	0.16201	-0.13326	-0.24202	0.21856	-0.13773	-0.23024	0.24819	-0.046816	-0.15316	-0.008669	-0.046816	0.031938	-0.008669	0	0	0	-0.13083	0.02681	0.038591	-0.12745	0.02106	0.15769	-0.14332	-0.086015	0.038893
639	5.9887	-0.096134	-0.013599	0.16204	-0.13356	-0.24225	0.21738	-0.13798	-0.23059	0.24708	-0.046816	-0.15316	-0.008669	-0.046816	0.031938	-0.008669	0	0	0	-0.13084	0.026827	0.038718	-0.12737	0.021047	0.15781	-0.14335	-0.085996	0.038925
640	5.9981	-0.096063	-0.013625	0.16207	-0.13385	-0.24241	0.21629	-0.13822	-0.23086	0.24606	-0.046816	-0.15316	-0.008669	-0.046816	0.031938	-0.008669	0	0	0	-0.13085	0.026836	0.038841	-0.12731	0.021048	0.15792	-0.14339	-0.085984	0.038967
641	6.0075	-0.095999	-0.013633	0.16211	-0.13412	-0.24254	0.21526	-0.13844	-0.23109	0.24511	-0.046816	-0.15316	-0.008669	-0.046816	0.031938	-0.008669	0	0	0	-0.13086	0.02684	0.038961	-0.12726	0.021059	0.15803	-0.14343	-0.085976	0.039018
642	6.0169	-0.095935	-0.01364	0.16214	-0.13438	-0.24266	0.21425	-0.13865	-0.23131	0.24416	-0.046816	-0.15316	-0.008669	-0.046816	0.031938	-0.008669	0	0	0	-0.13087	0.026844	0.039081	-0.1272	0.021071	0.15813	-0.14347	-0.085969	0.039076
643	6.0263	-0.095873	-0.013647	0.16218	-0.13465	-0.24277	0.21325	-0.13887	-0.23153	0.24322	-0.046816	-0.15316	-0.008669	-0.046816	0.031938	-0.008669	0	0	0	-0.13088	0.026848	0.039201	-0.12715	0.021085	0.15824	-0.14351	-0.085963	0.039141
644	6.0357	-0.095811	-0.013654	0.16221	-0.13492	-0.24289	0.21225	-0.13908	-0.23175	0.24229	-0.046816	-0.15316	-0.008669	-0.046816	0.031938	-0.008669	0	0	0	-0.1309	0.026851	0.03932	-0.1271	0.0211	0.15835	-0.14355	-0.085956	0.039212
645	6.0451	-0.095751	-0.01366	0.16225	-0.13518	-0.243	0.21127	-0.13929	-0.23196	0.24136	-0.046816	-0.15316	-0.008669	-0.046816	0.031938	-0.008669	0	0	0	-0.13091	0.026855	0.03944	-0.12705	0.021116	0.15846	-0.14359	-0.085949	0.03929
646	6.0544	-0.095691	-0.013667	0.16229	-0.13544	-0.24311	0.21029	-0.1395	-0.23217	0.24044	-0.046816	-0.15316	-0.008669	-0.046816	0.031938	-0.008669	0	0	0	-0.13093	0.026858	0.039558	-0.127	0.021134	0.15857	-0.14363	-0.085943	0.039373
647	6.0638	-0.095633	-0.013673	0.16233	-0.1357	-0.24321	0.20932	-0.1397	-0.23238	0.23953	-0.046816	-0.15316	-0.008669	-0.046816	0.031938	-0.008669	0	0	0	-0.13094	0.026862	0.039677	-0.12695	0.021153	0.15869	-0.14367	-0.085937	0.039462
648	6.0732	-0.095575	-0.013679	0.16237	-0.13596	-0.24332	0.20837	-0.1399	-0.23259	0.23863	-0.046816	-0.15316	-0.008669	-0.046816	0.031938	-0.008669	0	0	0	-0.13096	0.026865	0.039795	-0.1269	0.021173	0.1588	-0.14371	-0.085931	0.039556
649	6.0826	-0.095518	-0.013685	0.16241	-0.13622	-0.24342	0.20742	-0.14009	-0.23279	0.23774	-0.046816	-0.15316	-0.008669	-0.046816	0.031938	-0.008669	0	0	0	-0.13097	0.026868	0.039912	-0.12686	0.021195	0.15891	-0.14375	-0.085925	0.039655
650	6.092	-0.095462	-0.013691	0.16245	-0.13647	-0.24352	0.20648	-0.14028	-0.233	0.23685	-0.046816	-0.15316	-0.008669	-0.046816	0.031938	-0.008669	0	0	0	-0.13099	0.026871	0.040028	-0.12682	0.021218	0.15902	-0.14379	-0.085919	0.039759
651	6.1014	-0.095406	-0.013697	0.16249	-0.13672	-0.24362	0.20556	-0.14047	-0.23319	0.23598	-0.046816	-0.15316	-0.008669	-0.046816	0.031938	-0.008669	0	0	0	-0.13101	0.026873	0.040143	-0.12677	0.021241	0.15913	-0.14383	-0.085914	0.039868
